<?xml version="1.0" encoding="UTF-8"?>
<svg width="24px" height="20px" viewBox="0 0 24 20" version="1.1" xmlns="http://www.w3.org/2000/svg" xmlns:xlink="http://www.w3.org/1999/xlink">
    <title>形状</title>
    <g id="V1.4.0" stroke="none" stroke-width="1" fill="none" fill-rule="evenodd">
        <g id="首页-客服弹窗" transform="translate(-1868.000000, -326.000000)" fill="#0070FF" fill-rule="nonzero">
            <g id="侧边入口" transform="translate(1597.000000, 159.000000)">
                <g transform="translate(253.000000, 154.000000)" id="7">
                    <path d="M30,15.6990604 C34.4405369,15.7957047 37.9731544,19.4491275 37.9194631,23.889396 C37.9659553,26.0359802 37.1576147,28.1130765 35.6723449,29.6635471 C34.1870751,31.2140177 32.1466009,32.1107944 30,32.1565101 C27.8533757,32.1108651 25.8128596,31.2141105 24.3275747,29.6636241 C22.8422898,28.1131377 22.033973,26.0360005 22.0805369,23.889396 C22.0268456,19.4491275 25.5594631,15.7957047 30,15.6990604 Z M26.4410738,26.5175839 L26.2485906,26.2851007 C26.0547651,26.0115436 25.6786577,25.8550336 25.369396,26.0544966 C25.0977181,26.2295302 24.9307383,26.6405369 25.1387919,26.9336913 C25.8944966,28.0002685 27.030604,28.8177181 28.2716779,29.2171812 C29.2877852,29.5441611 30.4104698,29.566443 31.4426846,29.2993289 C32.313557,29.074094 33.101745,28.6343624 33.7948993,28.0684564 C34.199801,27.739847 34.5585572,27.358155 34.8614765,26.9336913 C35.0563758,26.6587919 34.9194631,26.2069799 34.6332886,26.0542282 C34.3441275,25.9015436 34.047156,25.9677559 33.8380516,26.1834448 L33.6212081,26.4488591 L33.6212081,26.4488591 C33.4597757,26.635259 33.2867238,26.8112698 33.1030872,26.9758389 L32.8292617,27.2069799 C32.6885906,27.310604 32.5449664,27.4104698 32.3959732,27.5022819 L32.1461858,27.647712 L32.1461858,27.647712 L31.7127517,27.8593289 L31.4348993,27.9613423 L31.4348993,27.9613423 L31.1155192,28.0559794 L31.1155192,28.0559794 L30.7204027,28.1420805 L30.7204027,28.1420805 L30.5804027,28.1642953 L30.5804027,28.1642953 C30.4577181,28.1771812 30.3350336,28.187651 30.2120805,28.1927517 C29.9632514,28.2028325 29.7140195,28.1950272 29.4663087,28.169396 L29.2665772,28.1395973 L29.2665772,28.1395973 C29.1482774,28.1184787 29.0308725,28.0929754 28.9143624,28.0630872 L28.6024414,27.9729545 L28.6024414,27.9729545 L28.2550336,27.8456376 L28.1519463,27.7989262 C28.0524385,27.7520358 27.9545414,27.7022819 27.858255,27.6496644 L27.6167319,27.5094629 L27.6167319,27.5094629 L27.3825503,27.3573154 L27.1774497,27.2112752 L27.0853691,27.1366443 C26.8551757,26.9469734 26.6397858,26.7400196 26.4410738,26.5175839 Z M21.1561879,25.6264698 L21.1194631,25.4944966 L21.1481596,25.6254099 C21.1520681,25.6415122 21.1553937,25.6538036 21.1573137,25.6579541 L21.1561879,25.629906 L21.171337,25.6767562 C21.2311187,25.9845353 21.1583245,26.306869 20.9649321,26.561086 C20.7328612,26.8661465 20.3599179,27.0300174 19.978255,26.9946309 C18.4195973,26.8891275 18,25.5849664 18,23.8891275 C18,22.3903356 18.4195973,20.8891275 19.9358389,20.8891275 C21.1400388,16.2988919 25.2550031,13.0732402 30,13 C34.7451902,13.0726941 38.8604454,16.2985739 40.0641611,20.8891275 C41.5640268,21.0085906 42,22.3903356 42,23.8891275 C42,25.3879195 41.5804027,26.8891275 40.0641611,27.0077852 C39.6825208,27.0432298 39.3095669,26.8794334 39.0774455,26.5744329 C38.8453242,26.2694324 38.7868284,25.8663169 38.9226846,25.5079195 L38.9226846,25.4024161 C38.9999879,24.9060652 39.0399211,24.4046115 39.0421477,23.9022819 C39.1150882,21.4491586 38.2057184,19.0684174 36.5159262,17.2886038 C34.931746,15.6200285 32.7845481,14.60906 30.5006283,14.4444089 L30,14.4228188 C27.5487421,14.4772365 25.2204105,15.5070249 23.5310007,17.2839665 C21.841591,19.060908 20.9306295,21.4382472 21,23.8891275 C21.0015738,24.2239508 21.0198462,24.5583827 21.054718,24.8911797 L21.1561879,25.6264698 Z" id="形状"></path>
                </g>
            </g>
        </g>
    </g>
</svg>