<?xml version="1.0" encoding="UTF-8"?>
<svg width="21px" height="20px" viewBox="0 0 21 20" version="1.1" xmlns="http://www.w3.org/2000/svg" xmlns:xlink="http://www.w3.org/1999/xlink">
    <title>icon</title>
    <g id="V1.4.0" stroke="none" stroke-width="1" fill="none" fill-rule="evenodd">
        <g id="首页-客服弹窗" transform="translate(-1613.000000, -484.000000)" fill="#FFFFFF" fill-rule="nonzero">
            <g id="侧边入口" transform="translate(1597.000000, 159.000000)">
                <g id="title" transform="translate(0.000000, 311.000000)">
                    <path d="M35.0879323,14 C36.0700735,14 36.8695652,14.7992247 36.8695652,15.7816329 L36.8695652,29.0157048 C36.8695652,29.9978459 36.0703405,30.7973377 35.0879323,30.7973377 L28.6228372,30.7973377 L27.0978214,33.4665827 C26.9618006,33.7044639 26.7088065,33.8513748 26.4347826,33.8513748 C26.1608085,33.8513748 25.9079298,33.7045076 25.7717439,33.4665827 L24.246728,30.7973377 L17.7816329,30.7973377 C16.7994918,30.7973377 16,29.998113 16,29.0157048 L16,15.7816329 C16,14.7994918 16.7992247,14 17.7816329,14 L35.0879323,14 Z M35.0879323,15 L17.7816329,15 C17.3874588,15 17.0591485,15.2954931 17.0071674,15.6759296 L17,15.7816329 L17,29.0157048 C17,29.4098789 17.2954931,29.7381892 17.6759296,29.7901703 L17.7816329,29.7973377 L24.827101,29.7973377 L26.434,32.611 L28.0424642,29.7973377 L35.0879323,29.7973377 C35.4821064,29.7973377 35.8104168,29.5018446 35.8623978,29.1214081 L35.8695652,29.0157048 L35.8695652,15.7816329 C35.8695652,15.3874588 35.5740721,15.0591485 35.1936356,15.0071674 L35.0879323,15 Z M21.6521739,20.9565217 C22.3726447,20.9565217 22.9565217,21.5406725 22.9565217,22.2608696 C22.9565217,22.9810667 22.372371,23.5652174 21.6521739,23.5652174 C20.9317031,23.5652174 20.3478261,22.9810667 20.3478261,22.2608696 C20.3478261,21.5406725 20.9317031,20.9565217 21.6521739,20.9565217 Z M26.8695652,20.9565217 C27.590036,20.9565217 28.173913,21.5406725 28.173913,22.2608696 C28.173913,22.9810667 27.5897623,23.5652174 26.8695652,23.5652174 C26.1493681,23.5652174 25.5652174,22.9810667 25.5652174,22.2608696 C25.5652174,21.5406725 26.1490944,20.9565217 26.8695652,20.9565217 Z M32.0869565,20.9565217 C32.8074273,20.9565217 33.3913043,21.5406725 33.3913043,22.2608696 C33.3913043,22.9810667 32.8071536,23.5652174 32.0869565,23.5652174 C31.3664857,23.5652174 30.7826087,22.9810667 30.7826087,22.2608696 C30.7826087,21.5406725 31.3664857,20.9565217 32.0869565,20.9565217 Z" id="icon"></path>
                </g>
            </g>
        </g>
    </g>
</svg>