<?xml version="1.0" encoding="UTF-8"?>
<svg width="20px" height="20px" viewBox="0 0 20 20" version="1.1" xmlns="http://www.w3.org/2000/svg" xmlns:xlink="http://www.w3.org/1999/xlink">
    <title>路径</title>
    <g id="V1.4.0" stroke="none" stroke-width="1" fill="none" fill-rule="evenodd">
        <g id="首页-客服弹窗" transform="translate(-1868.000000, -584.000000)" fill="#FFAD00" fill-rule="nonzero">
            <g id="侧边入口" transform="translate(1597.000000, 159.000000)">
                <g transform="translate(253.000000, 154.000000)" id="社交">
                    <g id="4" transform="translate(0.000000, 260.000000)">
                        <g id="icon" transform="translate(18.000000, 11.000000)">
                            <path d="M16.2499893,12.4948329 C15.0234557,12.4948329 13.9344705,13.0842222 13.2502933,13.9953142 L7.35700433,11.0366411 C7.45016806,10.7093926 7.50004579,10.3639433 7.50004579,10.0068161 C7.50004579,9.61555938 7.44015831,9.23839911 7.32914798,8.88388604 L13.200147,5.93625557 C13.8805888,6.88609456 14.9929382,7.50506935 16.2499893,7.50506935 C18.3210755,7.50506935 20,5.8250717 20,3.75257133 C20,1.68007095 18.3210755,-3.01980663e-14 16.2499893,-3.01980663e-14 C14.1789032,-3.01980663e-14 12.4999542,1.68007095 12.4999542,3.75257133 C12.4999542,3.89593035 12.5083526,4.03735935 12.5238799,4.17658958 L6.33181275,7.28538901 C5.65945194,6.64638109 4.75051973,6.25424482 3.75003511,6.25424482 C1.67894894,6.25424482 0,7.93431577 0,10.0068161 C0,12.0793165 1.67894892,13.7593142 3.75003509,13.7593142 C4.78684769,13.7593142 5.72546731,13.3381787 6.40427341,12.6574433 L12.5348662,15.7353379 C12.5119659,15.90281 12.4999542,16.0736291 12.4999542,16.2474287 C12.4999542,18.319929 14.1788055,20 16.2498916,20 C18.3209778,20 20,18.319929 20,16.2474287 C20,14.1749283 18.3210755,12.4948329 16.2499893,12.4948329 L16.2499893,12.4948329 Z" id="路径"></path>
                        </g>
                    </g>
                </g>
            </g>
        </g>
    </g>
</svg>