<?xml version="1.0" encoding="UTF-8"?>
<svg width="21px" height="21px" viewBox="0 0 21 21" version="1.1" xmlns="http://www.w3.org/2000/svg" xmlns:xlink="http://www.w3.org/1999/xlink">
    <title>形状</title>
    <g id="V1.4.0" stroke="none" stroke-width="1" fill="none" fill-rule="evenodd">
        <g id="首页-客服弹窗" transform="translate(-1870.000000, -463.000000)" fill="#00AEF3" fill-rule="nonzero">
            <g id="侧边入口" transform="translate(1597.000000, 159.000000)">
                <g transform="translate(253.000000, 154.000000)" id="社交">
                    <g id="6" transform="translate(0.000000, 137.000000)">
                        <g id="s" transform="translate(0.000000, 13.000000)">
                            <path d="M40.39625,12.7295147 C40.783,13.4960147 41.0000002,14.3587647 41.0000002,15.2731396 C41.0000002,18.4362646 38.3995001,21.0000185 35.1917501,21.0000185 C34.2345925,21.0011304 33.2917805,20.7673803 32.4460002,20.3192645 C31.8510002,20.4277645 31.2385002,20.4855145 30.6111252,20.4855145 C25.0793753,20.4855145 20.5950004,16.0641396 20.5950004,10.6093897 C20.5950004,9.92951475 20.6650004,9.26538975 20.7980004,8.62488979 C20.2754633,7.74919607 19.9997117,6.74838708 20.0000002,5.72863985 C20.0000002,2.56376491 22.6005004,7.45440313e-06 25.8100003,7.45440313e-06 C26.9014751,-0.00173669596 27.9715696,0.302618786 28.8987503,0.878514944 C29.4644904,0.782608681 30.0373136,0.734605103 30.6111252,0.735014956 C36.1437501,0.735014956 40.62725,5.15726485 40.62725,10.6102647 C40.62725,11.3373897 40.5485,12.0461397 40.39625,12.7303897 L40.39625,12.7295147 Z M35.7491251,15.3291396 C36.2128751,14.6807647 36.4500001,13.9387647 36.4500001,13.1258897 C36.4500001,12.4460147 36.3126251,11.8615147 36.0422501,11.3855147 C35.7668583,10.908305 35.37946,10.5052906 34.9135001,10.2112647 C34.4427502,9.90763976 33.8670002,9.64951475 33.1985002,9.44126476 C32.4704294,9.21403302 31.7316196,9.02276013 30.9847502,8.86813977 C30.5208679,8.76529951 30.059069,8.65327753 29.5996252,8.53213979 C29.3215654,8.45610142 29.051645,8.35293967 28.7937503,8.2241398 C28.5400003,8.09813981 28.3387503,7.9493898 28.1970003,7.77613979 C28.0618739,7.61625895 27.9902467,7.41227718 27.9957503,7.20301481 C27.9957503,6.8355148 28.1996253,6.52488982 28.6170003,6.25626483 C29.0501253,5.97538984 29.6355002,5.83363985 30.3521252,5.83363985 C31.1256252,5.83363985 31.6873752,5.96051484 32.0251252,6.21338983 C32.3716252,6.47413981 32.6743752,6.84338981 32.9237502,7.31063981 C33.1398752,7.67551481 33.3350002,7.9318898 33.5222502,8.09551479 C33.7226252,8.27051479 34.0140002,8.36063979 34.3841251,8.36063979 C34.771435,8.36960659 35.1447366,8.21565141 35.4131251,7.9362648 C35.6861251,7.6571398 35.8243751,7.33601481 35.8243751,6.98251482 C35.8243751,6.61676483 35.7176251,6.23876483 35.5102501,5.85726484 C35.3055001,5.48013984 34.9765001,5.11788986 34.5363751,4.77751487 C34.0988752,4.44063988 33.5432502,4.16763989 32.8826252,3.96551487 C32.2263752,3.76426488 31.4388752,3.6610149 30.5463752,3.6610149 C29.4263752,3.6610149 28.4376253,3.81501489 27.6063753,4.11776487 C26.7637503,4.42401486 26.1101253,4.87376486 25.6621253,5.44951485 C25.2143459,6.01838506 24.974461,6.72322059 24.9822504,7.4471398 C24.9822504,8.22938978 25.2010003,8.89526477 25.6297503,9.42726477 C26.0541253,9.94963975 26.6325003,10.3670148 27.3517503,10.6671397 C28.0526253,10.9628897 28.9355003,11.2227647 29.9767502,11.4415147 C30.7406252,11.5990147 31.3583752,11.7521397 31.8142502,11.8903897 C32.2500002,12.0268897 32.6087502,12.2220147 32.8826252,12.4722647 C33.1425002,12.7137647 33.2693752,13.0200147 33.2693752,13.4085147 C33.2693752,13.9028897 33.0278752,14.3071396 32.5273752,14.6422647 C32.0172502,14.9843897 31.3382502,15.1602646 30.5096252,15.1602646 C29.9085002,15.1602646 29.4185003,15.0727646 29.0553753,14.9047647 C28.6948753,14.7350147 28.4122503,14.5197647 28.2153753,14.2616397 C27.9847959,13.9506562 27.7918291,13.6134782 27.6405003,13.2571397 C27.4812503,12.8913897 27.2835003,12.6052647 27.0525003,12.4118897 C26.8044297,12.2089757 26.4917603,12.1018546 26.1713753,12.1100147 C25.7513753,12.1100147 25.3996254,12.2377647 25.1248754,12.4932647 C24.8581683,12.7289322 24.7063187,13.0683608 24.7083547,13.4242647 C24.7083547,14.0052647 24.9227504,14.6055147 25.3488753,15.2092647 C25.7755065,15.8149756 26.3407012,16.3099709 26.9973753,16.6530146 C27.9388753,17.1456396 29.1455003,17.3950146 30.5840002,17.3950146 C31.7827502,17.3950146 32.8345002,17.2112646 33.7130002,16.8507646 C34.6020001,16.4876396 35.2853751,15.9766396 35.7491251,15.3291396 Z" id="形状"></path>
                        </g>
                    </g>
                </g>
            </g>
        </g>
    </g>
</svg>