<?xml version="1.0" encoding="UTF-8"?>
<svg width="24px" height="20px" viewBox="0 0 24 20" version="1.1" xmlns="http://www.w3.org/2000/svg" xmlns:xlink="http://www.w3.org/1999/xlink">
    <title>形状</title>
    <g id="V1.4.0" stroke="none" stroke-width="1" fill="none" fill-rule="evenodd">
        <g id="首页-客服弹窗" transform="translate(-1868.000000, -526.000000)" fill="#00C800" fill-rule="nonzero">
            <g id="侧边入口" transform="translate(1597.000000, 159.000000)">
                <g transform="translate(253.000000, 154.000000)" id="社交">
                    <g id="3" transform="translate(0.000000, 199.000000)">
                        <path d="M34.6903962,20.0040296 C34.8112827,20.0040296 34.9321692,20.0067159 35.0503694,20.0120887 C34.4190732,16.6084621 30.8650101,14 26.5748825,14 C21.838818,14 18,17.1779718 18,21.0973808 C18,23.3969107 19.319006,25.4385494 21.3660175,26.7360645 C21.3928811,26.7521827 21.4439221,26.7844191 21.4439221,26.7844191 L20.6138348,29.3525856 L23.7139019,27.7891202 L23.8589657,27.8294157 C24.710544,28.0631296 25.6239087,28.1920752 26.5721961,28.1920752 C26.7656145,28.1920752 26.9563465,28.1840161 27.1470786,28.175957 C26.9724647,27.6359973 26.8757555,27.0691739 26.8757555,26.483546 C26.8784419,22.9053056 30.3787777,20.0040296 34.6903962,20.0040296 L34.6903962,20.0040296 Z M29.5594359,17.5003358 C30.2256548,17.5003358 30.7629281,18.0161182 30.7629281,18.6554735 C30.7629281,19.2921424 30.2256548,19.8106111 29.5594359,19.8106111 C28.8932169,19.8106111 28.3559436,19.2921424 28.3559436,18.6554735 C28.3559436,18.0161182 28.8932169,17.5003358 29.5594359,17.5003358 L29.5594359,17.5003358 Z M23.5903291,19.8079248 C22.9267965,19.8079248 22.3868368,19.289456 22.3868368,18.6527871 C22.3868368,18.0161182 22.9267965,17.4976494 23.5903291,17.4976494 C24.256548,17.4976494 24.7965077,18.0134318 24.7965077,18.6527871 C24.7965077,19.289456 24.256548,19.8079248 23.5903291,19.8079248 Z M42,26.5265279 C42,23.2142377 38.7575554,20.5305574 34.7575554,20.5305574 C30.754869,20.5305574 27.5124244,23.2142377 27.5124244,26.5265279 C27.5124244,29.838818 30.7575554,32.5224983 34.7575554,32.5224983 C35.5580927,32.5224983 36.3290799,32.4150437 37.0490262,32.2162525 C37.0893217,32.2055071 37.1725991,32.1813298 37.1725991,32.1813298 L39.7891202,33.5030222 L39.0906649,31.3324379 C39.0906649,31.3324379 39.1363331,31.3055742 39.157824,31.2921424 C40.8851578,30.1961048 42,28.468771 42,26.5265279 L42,26.5265279 Z M32.2350571,25.435863 C31.6736064,25.435863 31.2169241,24.9979852 31.2169241,24.4607119 C31.2169241,23.9234385 31.6709201,23.4882471 32.2350571,23.4882471 C32.7965077,23.4882471 33.2531901,23.9234385 33.2531901,24.4607119 C33.2531901,25.0006716 32.7965077,25.435863 32.2350571,25.435863 Z M37.274681,25.435863 C36.7132304,25.435863 36.2592344,24.9979852 36.2592344,24.4607119 C36.2592344,23.9234385 36.7132304,23.4882471 37.274681,23.4882471 C37.838818,23.4882471 38.292814,23.9234385 38.292814,24.4607119 C38.292814,25.0006716 37.838818,25.435863 37.274681,25.435863 Z" id="形状"></path>
                    </g>
                </g>
            </g>
        </g>
    </g>
</svg>