<?xml version="1.0" encoding="UTF-8"?>
<svg width="20px" height="20px" viewBox="0 0 20 20" version="1.1" xmlns="http://www.w3.org/2000/svg" xmlns:xlink="http://www.w3.org/1999/xlink">
    <title>形状结合</title>
    <g id="V1.4.0" stroke="none" stroke-width="1" fill="none" fill-rule="evenodd">
        <g id="首页-客服弹窗" transform="translate(-1870.000000, -399.000000)" fill="#25D366" fill-rule="nonzero">
            <g id="侧边入口" transform="translate(1597.000000, 159.000000)">
                <g transform="translate(253.000000, 154.000000)" id="社交">
                    <g id="5" transform="translate(0.000000, 73.000000)">
                        <g id="icon" transform="translate(20.000000, 13.000000)">
                            <path d="M10,0 C11.3481953,0 12.6406581,0.265392758 13.8773885,0.796178329 C15.114119,1.3269639 16.178344,2.03821656 17.0700637,2.9299363 C17.9617834,3.82165605 18.6730361,4.8858811 19.2038217,6.12261145 C19.7346073,7.3593418 20,8.65180466 20,10 C20,11.3481954 19.7346072,12.6406582 19.2038217,13.8773885 C18.6730361,15.1141189 17.9617835,16.1783439 17.0700637,17.0700637 C16.178344,17.9617835 15.1141189,18.6730361 13.8773885,19.2038217 C12.6406582,19.7346072 11.3481954,20 10,20 C8.01486201,20 6.18365181,19.447983 4.50636944,18.3439491 L4.50636944,18.3439491 L0.652866259,19.5700637 L1.91082804,15.8598726 C0.63694268,14.1082803 1.69642078e-12,12.1549894 1.69642078e-12,10 C1.69642078e-12,8.65180462 0.265392748,7.35934177 0.796178357,6.12261145 C1.32696396,4.88588114 2.03821661,3.82165609 2.9299363,2.9299363 C3.821656,2.03821652 4.88588105,1.32696386 6.12261148,0.796178329 C7.3593419,0.265392795 8.65180475,0 10,0 Z M6.68768346,5 C6.43768346,5 6.2055406,5.09821427 5.99125489,5.29464284 C5.35732632,5.89285714 5.02696918,6.59821429 5.00018346,7.41071429 L5.00018346,7.41071429 L5.00018346,7.51785713 C4.99125489,8.29464285 5.30821917,9.16071428 5.95107631,10.1160714 C6.62964775,11.1160714 7.29036203,11.9419643 7.93321918,12.59375 C8.57607632,13.2455357 9.33500489,13.7723214 10.2100049,14.1741071 C11.3975049,14.7276786 12.2457192,15.0044643 12.7546477,15.0044643 C13.1742906,15.0044643 13.6296478,14.8861607 14.1207192,14.6495536 C14.6117906,14.4129464 14.9287549,14.1205357 15.071612,13.7723214 C15.2233977,13.3883929 15.2992906,13.0491071 15.2992906,12.7544643 C15.2992906,12.6651786 15.290362,12.5982143 15.2725049,12.5535714 C15.227862,12.4732143 14.8283085,12.2366071 14.0738442,11.84375 C13.3193799,11.4508929 12.884112,11.2544643 12.7680406,11.2544643 C12.6519692,11.2544643 12.4198263,11.4709821 12.071612,11.9040178 C11.7233977,12.3370536 11.4823263,12.5535714 11.3483977,12.5535714 C11.259112,12.5535714 11.1608977,12.5223214 11.0537549,12.4598214 C10.2055406,12.03125 9.53143346,11.5803571 9.03143346,11.1071428 C8.42429059,10.5357143 7.96893344,9.92410714 7.66536202,9.27232142 C7.62071916,9.20089284 7.59839773,9.13392855 7.59839773,9.07142855 C7.59839773,8.98214285 7.75241559,8.77455357 8.06045131,8.44866071 C8.36848703,8.12276785 8.52250489,7.86607142 8.52250489,7.67857142 C8.52250489,7.61607142 8.41089775,7.28124999 8.18768346,6.67410713 C7.96446918,6.06696427 7.81714775,5.67410713 7.74571918,5.49553571 C7.6742906,5.30803571 7.60509417,5.18526785 7.53812989,5.12723213 C7.4711656,5.06919641 7.35286203,5.04017855 7.18321918,5.04017855 C7.12071918,5.04017857 7.03589775,5.03348215 6.92875489,5.02008929 C6.82161203,5.00669643 6.74125489,5 6.68768346,5 Z" id="形状结合"></path>
                        </g>
                    </g>
                </g>
            </g>
        </g>
    </g>
</svg>